<svg width="39" height="39" viewBox="0 0 39 39" fill="none" xmlns="http://www.w3.org/2000/svg">
<path d="M30.6419 0.00952148H7.99644C3.75548 0.00952148 0.321289 3.44371 0.321289 7.68467V30.3353C0.321289 34.5718 3.75548 38.006 7.99644 38.006H30.6471C34.8836 38.006 38.3222 34.5718 38.3222 30.3309V7.68467C38.3178 3.44371 34.8836 0.00952148 30.6419 0.00952148ZM10.8272 30.0934C10.3522 30.9246 9.29307 31.2044 8.4618 30.7294C7.63053 30.2544 7.35072 29.1953 7.82573 28.364L9.06076 26.2272C10.4569 25.7945 11.5917 26.127 12.4898 27.2099L10.8272 30.0934ZM22.8339 25.4293H7.11322C6.15354 25.4293 5.38462 24.6597 5.38462 23.7C5.38462 22.7411 6.15354 21.9714 7.11322 21.9714H11.5204L17.1634 12.1921L15.4007 9.13346C14.9264 8.30219 15.2062 7.25271 16.0375 6.76805C16.8688 6.29304 17.9183 6.57359 18.4029 7.40486L19.1577 8.73935L19.9274 7.40931C20.4024 6.57804 21.4615 6.29823 22.2928 6.77324C23.1241 7.24826 23.4039 8.30738 22.9289 9.13791L15.515 21.9714H20.8774C22.6157 21.9714 23.5894 24.0139 22.8339 25.4293ZM31.3025 25.439H28.8042L30.4905 28.364C30.9655 29.1953 30.6849 30.2455 29.8537 30.7294C29.0224 31.2044 27.9729 30.9246 27.4883 30.0934C24.6486 25.1681 22.5155 21.4823 21.1008 19.0271C19.652 16.5288 20.6874 14.0209 21.7087 13.1703C22.8435 15.1179 24.5395 18.0577 26.8047 21.981H31.3025C32.2621 21.981 33.031 22.7507 33.031 23.7096C33.031 24.6693 32.2621 25.439 31.3025 25.439Z" fill="#273137"/>
</svg>
