<svg width="29" height="32" viewBox="0 0 29 32" fill="none" xmlns="http://www.w3.org/2000/svg">
<path d="M25.9036 16.3977C24.9014 17.0378 23.7173 17.3321 22.5321 17.2358C21.3469 17.1395 20.2258 16.6577 19.3402 15.8642C19.1418 15.686 18.8845 15.5874 18.6178 15.5874C18.3511 15.5874 18.0938 15.686 17.8953 15.8642C16.8835 16.7312 15.5949 17.2077 14.2625 17.2077C12.93 17.2077 11.6415 16.7312 10.6296 15.8642C10.4312 15.686 10.1739 15.5874 9.90722 15.5874C9.64051 15.5874 9.38322 15.686 9.18479 15.8642C8.29089 16.6414 7.17187 17.1124 5.99123 17.2084C4.81059 17.3044 3.63019 17.0203 2.62248 16.3977C1.64222 15.7423 0.908901 14.7784 0.538857 13.6588C0.168813 12.5392 0.183243 11.328 0.579856 10.2176L2.93388 3.15333C3.15067 2.50319 3.56647 1.93771 4.1224 1.53693C4.67833 1.13615 5.34623 0.920382 6.03157 0.920166H22.4923C23.1777 0.920382 23.8456 1.13615 24.4015 1.53693C24.9574 1.93771 25.3732 2.50319 25.59 3.15333L27.9473 10.2176C28.3444 11.3281 28.3589 12.5395 27.9887 13.6592C27.6184 14.779 26.8845 15.7429 25.9036 16.3977ZM22.9714 19.4301C24.1712 19.4316 25.3543 19.148 26.423 18.6026V28.1406C26.4204 29.0061 26.0754 29.8355 25.4634 30.4475C24.8514 31.0595 24.022 31.4045 23.1565 31.4071H15.5348V24.8742C15.533 24.2972 15.3031 23.7443 14.8951 23.3362C14.487 22.9282 13.9342 22.6983 13.3571 22.6965H9.00186C8.42485 22.6983 7.87196 22.9282 7.46395 23.3362C7.05593 23.7443 6.82595 24.2972 6.82423 24.8742V31.4071H5.73541C4.86989 31.4045 4.04055 31.0595 3.42853 30.4475C2.81651 29.8355 2.47154 29.0061 2.46896 28.1406V18.7659C3.43221 19.193 4.47482 19.412 5.52853 19.4083C7.09069 19.4124 8.61718 18.9415 9.90558 18.0582C11.193 18.9241 12.7093 19.3866 14.2609 19.3866C15.8124 19.3866 17.3287 18.9241 18.6161 18.0582C19.8921 18.9528 21.413 19.4319 22.9714 19.4301ZM22.0677 23.7853C22.0677 23.4966 21.953 23.2196 21.7488 23.0154C21.5446 22.8112 21.2676 22.6965 20.9789 22.6965H18.8012C18.5125 22.6965 18.2355 22.8112 18.0313 23.0154C17.8271 23.2196 17.7124 23.4966 17.7124 23.7853C17.7124 24.0741 17.8271 24.3511 18.0313 24.5553C18.2355 24.7595 18.5125 24.8742 18.8012 24.8742H20.9789C21.2676 24.8742 21.5446 24.7595 21.7488 24.5553C21.953 24.3511 22.0677 24.0741 22.0677 23.7853Z" fill="white"/>
</svg>
