<svg width="38" height="33" viewBox="0 0 38 33" fill="none" xmlns="http://www.w3.org/2000/svg">
<path d="M35.807 4.73688C34.4464 2.94928 32.5244 1.6709 30.3498 1.1071C28.1752 0.543311 25.8743 0.726833 23.8165 1.62819C21.9748 2.42297 20.3322 3.76297 19 5.54123C17.6678 3.75862 16.0252 2.41862 14.1835 1.62819C12.1257 0.726833 9.82476 0.543311 7.65018 1.1071C5.47559 1.6709 3.55362 2.94928 2.19304 4.73688C0.758261 6.61688 0 8.96645 0 11.5308C0 15.2212 2.20087 19.2699 6.54087 23.5691C10.0774 27.0708 14.2565 29.9386 16.4322 31.336C17.1988 31.8266 18.0899 32.0874 19 32.0874C19.9101 32.0874 20.8012 31.8266 21.5678 31.336C23.7417 29.9386 27.9226 27.0708 31.4591 23.5691C35.7991 19.2717 38 15.2212 38 11.5308C38 8.96645 37.2417 6.61688 35.807 4.73688Z" fill="white"/>
</svg>
