<svg width="24" height="24" viewBox="0 0 24 24" fill="none" xmlns="http://www.w3.org/2000/svg">
<path d="M17.9438 0.682617H6.51513C3.37252 0.682617 0.800781 3.25324 0.800781 6.39697V17.8257C0.800781 20.9683 3.37252 23.54 6.51513 23.54H17.9438C21.0864 23.54 23.6582 20.9683 23.6582 17.8257V6.39697C23.6582 3.25324 21.0864 0.682617 17.9438 0.682617ZM12.2295 16.8731C9.59915 16.8731 7.46743 14.7405 7.46743 12.1113C7.46743 9.48099 9.59915 7.34927 12.2295 7.34927C14.8586 7.34927 16.9915 9.48099 16.9915 12.1113C16.9915 14.7405 14.8586 16.8731 12.2295 16.8731ZM18.4201 7.34927C17.6304 7.34927 16.9915 6.70953 16.9915 5.92068C16.9915 5.13183 17.6304 4.49209 18.4201 4.49209C19.2099 4.49209 19.8487 5.13183 19.8487 5.92068C19.8487 6.70953 19.2099 7.34927 18.4201 7.34927Z" fill="white"/>
</svg>
