<svg width="32" height="32" viewBox="0 0 32 32" fill="none" xmlns="http://www.w3.org/2000/svg">
<path d="M31.6213 7.9915L29.8272 15.7915C29.5856 16.8068 29.069 17.7359 28.3341 18.4769L15.8051 30.4265C15.177 31.0543 14.3253 31.407 13.4372 31.407C12.5492 31.407 11.6975 31.0543 11.0694 30.4265L1.62021 20.9774C0.9942 20.3506 0.642578 19.501 0.642578 18.6151C0.642578 17.7292 0.9942 16.8796 1.62021 16.2528L14.1492 4.29207C14.8881 3.55655 15.8185 3.04309 16.8347 2.81007L24.6347 1.00493C25.186 0.878361 25.7604 0.89375 26.3041 1.04966C26.8478 1.20556 27.3431 1.49689 27.7435 1.89636L28.4455 2.59836L24.3338 6.67665C23.622 6.33826 22.8133 6.26299 22.0513 6.46419C21.2893 6.66538 20.6232 7.13004 20.1712 7.7757C19.7192 8.42136 19.5106 9.20627 19.5823 9.99114C19.654 10.776 20.0015 11.5101 20.5631 12.0631C21.1917 12.6867 22.0399 13.0388 22.9254 13.0437C23.8116 13.0429 24.6613 12.6902 25.2876 12.0631H25.2988C25.7849 11.5686 26.1059 10.9356 26.2176 10.2512C26.3294 9.56679 26.2264 8.86458 25.9228 8.2411L30.0122 4.17396L30.7254 4.8871C31.1249 5.28667 31.4166 5.78099 31.5733 6.32388C31.73 6.86676 31.7465 7.44051 31.6213 7.9915Z" fill="white"/>
</svg>
