<svg width="25" height="26" viewBox="0 0 25 26" fill="none" xmlns="http://www.w3.org/2000/svg">
<path d="M22.072 2.73988H18.5795V1.86677C18.5795 1.6352 18.4875 1.41312 18.3238 1.24938C18.1601 1.08564 17.938 0.993652 17.7064 0.993652C17.4749 0.993652 17.2528 1.08564 17.089 1.24938C16.9253 1.41312 16.8333 1.6352 16.8333 1.86677V2.73988H8.10217V1.86677C8.10217 1.6352 8.01018 1.41312 7.84644 1.24938C7.6827 1.08564 7.46062 0.993652 7.22905 0.993652C6.99749 0.993652 6.77541 1.08564 6.61167 1.24938C6.44793 1.41312 6.35594 1.6352 6.35594 1.86677V2.73988H2.86348C2.16879 2.73988 1.50255 3.01585 1.01133 3.50707C0.520106 3.99829 0.244141 4.66453 0.244141 5.35922V7.97857H24.6913V5.35922C24.6913 4.66453 24.4154 3.99829 23.9241 3.50707C23.4329 3.01585 22.7667 2.73988 22.072 2.73988Z" fill="#B5DBFF"/>
<path d="M8.97468 15.8367C9.45688 15.8367 9.84779 15.4458 9.84779 14.9636C9.84779 14.4814 9.45688 14.0905 8.97468 14.0905C8.49247 14.0905 8.10156 14.4814 8.10156 14.9636C8.10156 15.4458 8.49247 15.8367 8.97468 15.8367Z" fill="#B5DBFF"/>
<path d="M15.96 21.0754C16.4422 21.0754 16.8331 20.6845 16.8331 20.2023C16.8331 19.7201 16.4422 19.3292 15.96 19.3292C15.4778 19.3292 15.0869 19.7201 15.0869 20.2023C15.0869 20.6845 15.4778 21.0754 15.96 21.0754Z" fill="#B5DBFF"/>
<path d="M0.244141 22.8216C0.244141 23.5163 0.520106 24.1825 1.01133 24.6737C1.50255 25.1649 2.16879 25.4409 2.86348 25.4409H22.072C22.7667 25.4409 23.4329 25.1649 23.9241 24.6737C24.4154 24.1825 24.6913 23.5163 24.6913 22.8216V9.72485H0.244141V22.8216ZM18.5795 20.2022C18.5795 20.7203 18.4259 21.2267 18.1381 21.6575C17.8503 22.0882 17.4412 22.4239 16.9626 22.6222C16.484 22.8204 15.9573 22.8723 15.4492 22.7712C14.9411 22.6702 14.4744 22.4207 14.108 22.0544C13.7417 21.6881 13.4922 21.2213 13.3912 20.7132C13.2901 20.2051 13.342 19.6785 13.5402 19.1998C13.7385 18.7212 14.0742 18.3121 14.505 18.0243C14.9357 17.7365 15.4421 17.5829 15.9602 17.5829C16.6549 17.5829 17.3211 17.8588 17.8123 18.3501C18.3036 18.8413 18.5795 19.5075 18.5795 20.2022ZM16.5775 13.4731C16.7412 13.6369 16.8331 13.8589 16.8331 14.0904C16.8331 14.3219 16.7412 14.544 16.5775 14.7077L9.59257 21.6926C9.4279 21.8517 9.20735 21.9397 8.97842 21.9377C8.7495 21.9357 8.53051 21.8439 8.36863 21.682C8.20674 21.5201 8.11492 21.3011 8.11293 21.0722C8.11094 20.8433 8.19895 20.6227 8.35799 20.458L15.3429 13.4731C15.5066 13.3094 15.7287 13.2175 15.9602 13.2175C16.1917 13.2175 16.4138 13.3094 16.5775 13.4731ZM8.97528 12.3442C9.49334 12.3442 9.99976 12.4978 10.4305 12.7856C10.8613 13.0735 11.197 13.4825 11.3952 13.9612C11.5935 14.4398 11.6454 14.9664 11.5443 15.4745C11.4432 15.9826 11.1938 16.4494 10.8274 16.8157C10.4611 17.182 9.99439 17.4315 9.48629 17.5326C8.97819 17.6336 8.45152 17.5817 7.9729 17.3835C7.49428 17.1852 7.0852 16.8495 6.79738 16.4188C6.50956 15.988 6.35594 15.4816 6.35594 14.9635C6.35594 14.2688 6.6319 13.6026 7.12313 13.1114C7.61435 12.6202 8.28059 12.3442 8.97528 12.3442Z" fill="white"/>
</svg>
