<svg width="13" height="14" viewBox="0 0 13 14" fill="none" xmlns="http://www.w3.org/2000/svg">
<path d="M7.54926 7.24012L12.2852 2.50389C12.5935 2.19582 12.5935 1.69771 12.2852 1.38964C11.9772 1.08157 11.4791 1.08157 11.171 1.38964L6.43489 6.12587L1.6989 1.38964C1.39069 1.08157 0.892738 1.08157 0.584673 1.38964C0.276463 1.69771 0.276463 2.19582 0.584673 2.50389L5.32066 7.24012L0.584673 11.9763C0.276463 12.2844 0.276463 12.7825 0.584673 13.0906C0.738201 13.2443 0.940067 13.3215 1.14179 13.3215C1.34351 13.3215 1.54523 13.2443 1.6989 13.0906L6.43489 8.35437L11.171 13.0906C11.3247 13.2443 11.5264 13.3215 11.7281 13.3215C11.9299 13.3215 12.1316 13.2443 12.2852 13.0906C12.5935 12.7825 12.5935 12.2844 12.2852 11.9763L7.54926 7.24012Z" fill="#3C3C3C" stroke="#3C3C3C" stroke-width="0.5"/>
</svg>
