<svg width="16" height="27" viewBox="0 0 16 27" fill="none" xmlns="http://www.w3.org/2000/svg">
<path d="M0.976773 15.1547C1.10779 15.2866 1.25285 15.398 1.40352 15.4948L11.515 25.6058C12.5019 26.5918 14.1012 26.5922 15.0886 25.6054C16.0754 24.619 16.0754 23.0191 15.0886 22.0318L6.37995 13.3241L15.1326 4.57058C16.1199 3.58465 16.1199 1.98433 15.1326 0.997003C14.6389 0.504274 13.9927 0.257677 13.3465 0.257677C12.7003 0.257677 12.0526 0.504276 11.5604 0.99794L1.40352 11.1534C1.25285 11.2503 1.10826 11.3612 0.976774 11.4936C0.471411 11.9989 0.229024 12.6625 0.240255 13.3241C0.228556 13.9862 0.471411 14.6507 0.976773 15.1547Z" fill="white"/>
</svg>
