<svg width="24" height="29" viewBox="0 0 24 29" fill="none" xmlns="http://www.w3.org/2000/svg">
<path d="M12.2505 0.0463867C4.53926 0.0475588 0.44043 4.98796 0.44043 10.3749C0.44043 12.8727 1.8364 15.9893 4.0716 16.9774C4.70922 17.2645 4.62483 16.9141 5.17337 14.816C5.21674 14.6414 5.19447 14.4902 5.05381 14.3273C1.85867 10.6316 4.43026 3.03407 11.7946 3.03407C22.4525 3.03407 20.4611 17.7814 13.6488 17.7814C11.893 17.7814 10.585 16.403 10.9987 14.6976C11.5004 12.6664 12.4826 10.4828 12.4826 9.01881C12.4826 5.32904 6.98544 5.87641 6.98544 10.7652C6.98544 12.2761 7.51991 13.2958 7.51991 13.2958C7.51991 13.2958 5.75121 20.4409 5.42303 21.7759C4.86745 24.0358 5.49804 27.6939 5.55313 28.0092C5.58712 28.1826 5.78169 28.2377 5.89069 28.0947C6.06534 27.8662 8.20325 24.8164 8.80219 22.6117C9.0202 21.8088 9.91451 18.5503 9.91451 18.5503C10.5041 19.6146 12.2036 20.5054 14.0145 20.5054C19.4015 20.5054 23.2952 15.7701 23.2952 9.89437C23.2765 4.26126 18.4556 0.0463867 12.2505 0.0463867V0.0463867Z" fill="white"/>
</svg>
