<svg width="13" height="12" viewBox="0 0 13 12" fill="none" xmlns="http://www.w3.org/2000/svg">
<path d="M11.8063 9.97044L9.66509 7.82836C11.2672 5.68735 10.8304 2.65292 8.68936 1.05079C6.54836 -0.551337 3.51393 -0.114488 1.9118 2.02652C0.309671 4.16752 0.746519 7.20195 2.88752 8.80408C4.60736 10.091 6.96951 10.091 8.68936 8.80408L10.8314 10.9462C11.1006 11.2154 11.5371 11.2154 11.8062 10.9462C12.0754 10.677 12.0754 10.2405 11.8062 9.97136L11.8063 9.97044ZM5.80629 8.39064C3.90347 8.39064 2.36095 6.84811 2.36095 4.94529C2.36095 3.04246 3.90347 1.49994 5.80629 1.49994C7.70912 1.49994 9.25165 3.04246 9.25165 4.94529C9.24962 6.84725 7.70828 8.38861 5.80629 8.39064Z" fill="#3C3C3C"/>
</svg>
