<svg width="16" height="27" viewBox="0 0 16 27" fill="none" xmlns="http://www.w3.org/2000/svg">
<path d="M14.9588 11.4483C14.8278 11.3163 14.6827 11.2049 14.532 11.1081L4.42055 0.997068C3.43369 0.0111429 1.83431 0.010675 0.846982 0.997536C-0.139879 1.98393 -0.139879 3.58378 0.846982 4.57111L9.5556 13.2788L0.802997 22.0323C-0.184332 23.0183 -0.184332 24.6186 0.802997 25.6059C1.29666 26.0986 1.94287 26.3452 2.58908 26.3452C3.23529 26.3452 3.8829 26.0986 4.37516 25.605L14.532 15.4495C14.6827 15.3526 14.8273 15.2418 14.9588 15.1093C15.4641 14.604 15.7065 13.9404 15.6953 13.2788C15.707 12.6167 15.4641 11.9522 14.9588 11.4483Z" fill="white"/>
</svg>
