<svg width="30" height="24" viewBox="0 0 30 24" fill="none" xmlns="http://www.w3.org/2000/svg">
<path d="M29.1147 3.38859C28.0685 3.84749 26.9537 4.15167 25.7915 4.29937C26.9872 3.58551 27.8997 2.46374 28.3287 1.11163C27.214 1.77626 25.9832 2.24571 24.6715 2.5077C23.613 1.38065 22.1045 0.682617 20.4587 0.682617C17.2657 0.682617 14.6951 3.2743 14.6951 6.45148C14.6951 6.90863 14.7338 7.3482 14.8288 7.76666C10.034 7.53282 5.79128 5.23476 2.94113 1.73406C2.44354 2.59737 2.15167 3.58551 2.15167 4.64926C2.15167 6.64665 3.18025 8.41722 4.71346 9.44229C3.78685 9.42471 2.87783 9.15569 2.10771 8.73195C2.10771 8.74954 2.10771 8.77239 2.10771 8.79525C2.10771 11.5979 4.10686 13.9259 6.72843 14.4621C6.25897 14.5905 5.74732 14.652 5.21632 14.652C4.84709 14.652 4.47434 14.6309 4.12444 14.5536C4.8717 16.8376 6.99217 18.5167 9.51352 18.5712C7.5513 20.1062 5.05984 21.031 2.36266 21.031C1.88969 21.031 1.43605 21.0099 0.982422 20.9519C3.53718 22.5994 6.56491 23.5401 9.83001 23.5401C20.4429 23.5401 26.2452 14.7487 26.2452 7.12842C26.2452 6.87347 26.2364 6.62731 26.2241 6.38291C27.3687 5.57059 28.3305 4.55607 29.1147 3.38859Z" fill="white"/>
</svg>
